<svg width="24" height="28" viewBox="0 0 24 28" fill="none" xmlns="http://www.w3.org/2000/svg">
<path d="M23.5121 20.6172C23.0482 21.4375 22.2766 22.0254 21.1972 22.3809C20.1178 22.7363 18.8377 22.8411 17.3568 22.6953C16.7146 24.3542 15.9251 25.653 14.9884 26.5918C14.0517 27.5306 13.0526 28 11.9911 28C10.9295 28 9.93042 27.526 8.99376 26.5781C8.05709 25.6302 7.26762 24.3359 6.62533 22.6953C5.14451 22.8411 3.8644 22.7363 2.78501 22.3809C1.70561 22.0254 0.933978 21.4375 0.470106 20.6172C-0.0116076 19.724 -0.123115 18.7122 0.135583 17.582C0.394281 16.4518 0.996422 15.2578 1.94201 14C0.996422 12.7422 0.394281 11.5482 0.135583 10.418C-0.123115 9.28776 -0.0116076 8.27604 0.470106 7.38281C0.933978 6.5625 1.71007 5.97461 2.79839 5.61914C3.8867 5.26367 5.16235 5.15885 6.62533 5.30469C7.26762 3.64583 8.05709 2.34701 8.99376 1.4082C9.93042 0.469401 10.9295 0 11.9911 0C13.0526 0 14.0517 0.469401 14.9884 1.4082C15.9251 2.34701 16.7146 3.64583 17.3568 5.30469C18.8377 5.15885 20.1178 5.26367 21.1972 5.61914C22.2766 5.97461 23.0482 6.5625 23.5121 7.38281C24.0116 8.25781 24.1276 9.26497 23.86 10.4043C23.5923 11.5436 22.9857 12.7422 22.0402 14C22.9857 15.2578 23.5923 16.4518 23.86 17.582C24.1276 18.7122 24.0116 19.724 23.5121 20.6172ZM21.9599 19.6328C22.6022 18.5391 22.2721 17.0898 20.9697 15.2852C20.256 16.069 19.471 16.8073 18.6146 17.5C18.4719 18.7031 18.24 19.8607 17.9188 20.9727C20.0063 21.1003 21.3533 20.6536 21.9599 19.6328ZM7.29438 9.10547C7.75825 8.79557 8.2132 8.51302 8.65923 8.25781C8.74844 8.22135 9.08742 8.04818 9.67618 7.73828C8.98038 7.51953 8.32917 7.35547 7.72257 7.24609C7.54416 7.86589 7.40143 8.48568 7.29438 9.10547ZM9.54237 9.81641C8.65031 10.3268 7.79393 10.8828 6.97324 11.4844C6.90187 12.3047 6.86619 13.1432 6.86619 14C6.86619 14.7474 6.90187 15.5951 6.97324 16.543C7.81177 17.1445 8.66815 17.6914 9.54237 18.1836C10.3095 18.6211 11.1213 19.0221 11.9777 19.3867C12.9054 18.9857 13.7351 18.5846 14.4666 18.1836C15.3586 17.6732 16.215 17.1172 17.0357 16.5156C17.1071 15.6771 17.1427 14.8385 17.1427 14C17.1427 13.2708 17.0981 12.4232 17.0089 11.457C16.1704 10.8555 15.3229 10.3086 14.4666 9.81641C13.6815 9.37891 12.8608 8.97786 12.0045 8.61328C11.0767 9.01432 10.256 9.41536 9.54237 9.81641ZM5.18019 12.9336C4.82337 13.2435 4.45762 13.599 4.08296 14C4.43978 14.3828 4.80553 14.7383 5.18019 15.0664C5.16235 14.5378 5.15343 14.1823 5.15343 14C5.15343 13.7083 5.16235 13.3529 5.18019 12.9336ZM16.7146 18.8945C16.215 19.2044 15.7511 19.487 15.3229 19.7422L14.306 20.2617C14.984 20.4805 15.6352 20.6445 16.2596 20.7539C16.438 20.1341 16.5897 19.5143 16.7146 18.8945ZM18.8287 15.0664C19.1856 14.7383 19.5424 14.3828 19.8992 14C19.5602 13.6354 19.1945 13.2799 18.802 12.9336C18.8377 13.5352 18.8555 13.8906 18.8555 14C18.8555 14.1823 18.8466 14.5378 18.8287 15.0664ZM12.0045 26.25C12.7181 26.25 13.3961 25.9173 14.0384 25.252C14.6807 24.5866 15.2337 23.6615 15.6976 22.4766C14.5201 22.2396 13.2801 21.8659 11.9777 21.3555C10.6931 21.8659 9.46209 22.2396 8.28457 22.4766C8.76628 23.6615 9.32828 24.5866 9.97056 25.252C10.6128 25.9173 11.2908 26.25 12.0045 26.25ZM9.64942 20.2617C9.23907 20.0612 8.90901 19.888 8.65923 19.7422C8.24888 19.5052 7.79393 19.2227 7.29438 18.8945C7.41927 19.6237 7.562 20.2435 7.72257 20.7539C8.27565 20.6628 8.91793 20.4987 9.64942 20.2617ZM2.02229 19.6328C2.64674 20.6536 3.99375 21.1003 6.06333 20.9727C5.76003 19.8971 5.5281 18.7396 5.36753 17.5C4.51115 16.8073 3.72613 16.0781 3.01248 15.3125C1.72791 17.1172 1.39785 18.5573 2.02229 19.6328ZM2.02229 8.36719C1.39785 9.46094 1.72791 10.901 3.01248 12.6875C3.72613 11.9219 4.51115 11.1927 5.36753 10.5C5.51026 9.29688 5.74219 8.13932 6.06333 7.02734C3.99375 6.89974 2.64674 7.34635 2.02229 8.36719ZM12.0045 1.75C11.2908 1.75 10.6128 2.08268 9.97056 2.74805C9.32828 3.41341 8.76628 4.33854 8.28457 5.52344C9.47993 5.76042 10.7199 6.13411 12.0045 6.64453C13.3069 6.13411 14.5379 5.76042 15.6976 5.52344C15.2159 4.33854 14.6583 3.41341 14.025 2.74805C13.3916 2.08268 12.7181 1.75 12.0045 1.75ZM14.3595 7.73828C14.7342 7.9388 15.0553 8.11198 15.3229 8.25781C15.7154 8.49479 16.1704 8.77734 16.6878 9.10547C16.5629 8.39453 16.4291 7.77474 16.2864 7.24609C15.7511 7.33724 15.1088 7.5013 14.3595 7.73828ZM21.9599 8.36719C21.3533 7.34635 20.0063 6.89974 17.9188 7.02734C18.2221 8.10286 18.4541 9.26042 18.6146 10.5C19.471 11.1927 20.256 11.9219 20.9697 12.6875C22.2543 10.901 22.5843 9.46094 21.9599 8.36719Z" fill="white"/>
</svg>
