<svg width="22" height="27" viewBox="0 0 22 27" fill="none" xmlns="http://www.w3.org/2000/svg">
<path fill-rule="evenodd" clip-rule="evenodd" d="M1.64294 1.8037C2.26806 1.17858 3.1159 0.827393 3.99996 0.827393H13.3334H13.9166C14.1818 0.827393 14.4362 0.932749 14.6237 1.12029L21.0404 7.53695C21.2279 7.72449 21.3333 7.97884 21.3333 8.24406V8.81445L21.3334 8.82739L21.3333 8.84033V22.8274C21.3333 23.7115 20.9821 24.5593 20.357 25.1844C19.7319 25.8095 18.884 26.1607 18 26.1607H3.99996C3.1159 26.1607 2.26806 25.8095 1.64294 25.1844C1.01782 24.5593 0.666626 23.7114 0.666626 22.8274V4.16073C0.666626 3.27667 1.01782 2.42882 1.64294 1.8037ZM3.99996 2.82739H12.3334V8.82739C12.3334 9.37968 12.7811 9.82739 13.3334 9.82739H19.3333V22.8274C19.3333 23.181 19.1928 23.5202 18.9428 23.7702C18.6927 24.0203 18.3536 24.1607 18 24.1607H3.99996C3.64634 24.1607 3.3072 24.0203 3.05715 23.7702C2.8071 23.5202 2.66663 23.181 2.66663 22.8274V4.16073C2.66663 3.8071 2.8071 3.46797 3.05715 3.21792C3.3072 2.96787 3.64634 2.82739 3.99996 2.82739ZM14.3334 7.82739H18.5024L14.3334 3.65835V7.82739ZM15.2071 15.368C15.5976 14.9775 15.5976 14.3443 15.2071 13.9538C14.8166 13.5633 14.1834 13.5633 13.7929 13.9538L9.83333 17.9133L8.20711 16.2871C7.81658 15.8966 7.18342 15.8966 6.79289 16.2871C6.40237 16.6776 6.40237 17.3108 6.79289 17.7013L9.12623 20.0347C9.51675 20.4252 10.1499 20.4252 10.5404 20.0347L15.2071 15.368Z" fill="white"/>
</svg>
