<svg width="18" height="20" viewBox="0 0 18 20" fill="none" xmlns="http://www.w3.org/2000/svg">
<path d="M9 1.68129e-08C4.86364 1.68129e-08 1.40926 2.63333 0 6.35417L1.49178 6.97917C2.67047 3.8675 5.52944 1.66667 9 1.66667C11.6227 1.66667 13.9615 2.99167 15.4218 5H12.236V6.66667H17.8989V0.833333H16.2809V3.41167C15.3743 2.34025 14.2554 1.48138 12.9995 0.892876C11.7435 0.304377 10.3798 -8.26087e-05 9 1.68129e-08ZM16.5082 13.0208C15.3295 16.1325 12.4706 18.3333 9 18.3333C6.34894 18.3333 4.01987 16.9892 2.55317 15H5.76404V13.3333H0.101124V19.1667H1.7191V16.5883C3.48917 18.655 6.0836 20 9 20C13.1364 20 16.5907 17.3667 18 13.6458L16.5082 13.0208Z" fill="white"/>
</svg>
