<svg width="20" height="22" viewBox="0 0 20 22" fill="none" xmlns="http://www.w3.org/2000/svg">
<path d="M19.9648 5.39406C19.947 5.20891 19.8821 5.03131 19.7761 4.87795C19.6702 4.7246 19.5267 4.60054 19.3592 4.51743L10.532 0.117773C10.3784 0.0407143 10.2088 0.000384685 10.0368 2.73849e-06C9.86475 -0.000379208 9.695 0.0391973 9.54108 0.115573L0.654051 4.51523C0.32523 4.68022 0.0982657 4.99589 0.0517657 5.35887C0.0373729 5.46556 -1.21591 16.0731 9.50787 21.8664C9.67272 21.9557 9.85781 22.0017 10.0456 22C10.2333 21.9982 10.4175 21.9488 10.5807 21.8565C20.8849 16.072 20.0069 5.82743 19.9648 5.39406ZM10.026 19.6314C2.43101 15.2207 2.12102 8.24504 2.20626 6.2069L10.0349 2.3319L17.7827 6.1937C17.7882 8.25054 17.2501 15.2603 10.026 19.6314Z" fill="white"/>
</svg>
