<svg width="23" height="24" viewBox="0 0 23 24" fill="none" xmlns="http://www.w3.org/2000/svg">
<path d="M14.1657 10.8745L13.9442 11.4752L14.3971 11.9277L20.9321 18.4583C20.9326 18.4589 20.9332 18.4595 20.9338 18.4601C21.8063 19.3429 21.8064 20.7648 20.9339 21.6477C20.0504 22.5288 18.6306 22.5282 17.7477 21.6459L11.2091 15.1117L10.7554 14.6583L10.1541 14.8816C8.87074 15.3583 7.41514 15.4825 5.87058 15.0285L5.86681 15.0274C3.52285 14.3485 1.66584 12.3851 1.15911 9.99937L1.15896 9.99866C0.848741 8.54334 1.00721 7.15552 1.50802 5.9452L5.28468 9.71935L5.99156 10.4258L6.69843 9.71935L8.99928 7.42003L9.70709 6.71269L8.99928 6.00535L5.22379 2.23237C6.43502 1.73148 7.82474 1.57042 9.28277 1.87158C11.6551 2.37836 13.6213 4.23317 14.3134 6.59157L14.3142 6.59425C14.7671 8.12164 14.6444 9.57592 14.1657 10.8745Z" stroke="#5CA7FF" stroke-width="2"/>
</svg>
