<svg width="25" height="24" viewBox="0 0 25 24" fill="none" xmlns="http://www.w3.org/2000/svg">
<path d="M11.9812 1.06478e-06C11.4338 -0.000440867 10.8951 0.13669 10.4146 0.398793C9.93407 0.660896 9.52713 1.03956 9.23116 1.5L6.41816 6.125L8.13816 7.156L10.9502 2.562C11.4892 1.758 12.5122 1.738 13.0442 2.562L16.1692 7.562L14.6692 8.437L19.2942 11.031V5.718L17.8562 6.562L14.7312 1.501C14.4352 1.04056 14.0282 0.661896 13.5477 0.399793C13.0672 0.13769 12.5285 0.00055906 11.9812 0.00100099V1.06478e-06ZM6.38716 8.125L1.88716 10.719L3.13716 11.469L0.575159 15.687L0.543159 15.656C0.532159 15.676 0.555159 15.699 0.543159 15.719C-0.928841 17.949 0.771159 21.031 3.48116 21.031H8.98116V19.031H3.48116C2.21516 19.031 1.53616 17.781 2.20016 16.812L2.23116 16.781V16.75L4.85616 12.5L6.38716 13.437V8.125ZM21.0432 11.687L19.3252 12.75L21.8252 16.75C22.4652 17.84 21.7392 19.031 20.5752 19.031H14.9812V17.031L10.0752 20.031L14.9812 23.031V21.031H20.5752C23.2112 21.031 24.9032 18.031 23.5432 15.718V15.688L21.0432 11.687Z" fill="white"/>
</svg>
