<svg width="13" height="27" viewBox="0 0 13 27" fill="none" xmlns="http://www.w3.org/2000/svg">
<path d="M7.8137 11.9341C5.48646 11.1541 3.27414 10.5186 3.27414 8.62636C3.27414 6.8497 5.19914 6.21414 6.3915 6.21414C7.78497 6.21414 8.64691 6.87859 9.13534 7.51414C9.55195 8.06303 10.2702 8.2797 10.9023 8.0197C11.793 7.64414 12.0947 6.51747 11.4913 5.73747C10.8018 4.81303 9.62378 3.81636 7.72751 3.49858V1.93859C7.72751 1.14414 7.08105 0.494141 6.29094 0.494141C5.50082 0.494141 4.85437 1.14414 4.85437 1.93859V3.54192C2.88627 3.93192 0.271716 5.5497 0.271716 8.68414C0.271716 12.3964 3.59019 13.5375 6.04672 14.4186C8.76183 15.3864 9.96855 16.2819 9.96855 17.943C9.96855 19.9075 8.17284 20.7164 6.56388 20.7164C4.53832 20.7164 3.44653 19.373 2.88627 18.3186C2.54149 17.6397 1.70828 17.3797 1.01873 17.6686L0.932538 17.7119C0.12806 18.0441 -0.231083 18.983 0.15679 19.763C0.860709 21.1353 2.21108 22.8108 4.85437 23.4175V25.0497C4.85437 25.8441 5.50082 26.4941 6.29094 26.4941C7.08105 26.4941 7.72751 25.8441 7.72751 25.0497V23.4897C7.8137 23.4753 12.9997 22.8975 12.9997 17.8997C13.0284 14.6786 10.9167 13.0175 7.8137 11.9341Z" fill="white"/>
</svg>
