<svg width="19" height="24" viewBox="0 0 19 24" fill="none" xmlns="http://www.w3.org/2000/svg">
<path fill-rule="evenodd" clip-rule="evenodd" d="M0.903137 0.949625C1.4863 0.345877 2.28479 0 3.125 0H11.625C11.8962 0 12.1558 0.110174 12.3443 0.30526L18.7193 6.90526C18.8993 7.0917 19 7.34079 19 7.6V12.598L19 12.6L19 12.602V20.8C19 21.6377 18.6789 22.4478 18.0969 23.0504C17.5137 23.6541 16.7152 24 15.875 24H3.125C2.28479 24 1.4863 23.6541 0.903137 23.0504C0.321111 22.4478 0 21.6377 0 20.8V3.2C0 2.36228 0.321111 1.55219 0.903137 0.949625ZM17 8.00409V11.6H12.625V6C12.625 5.44772 12.1773 5 11.625 5C11.0727 5 10.625 5.44772 10.625 6V12.1H5.25C4.69772 12.1 4.25 12.5477 4.25 13.1C4.25 13.6523 4.69772 14.1 5.25 14.1H13.75C14.1201 14.1 14.4433 13.8989 14.6162 13.6H17V20.8C17 21.1292 16.8733 21.4383 16.6583 21.6609C16.4445 21.8823 16.162 22 15.875 22H3.125C2.83804 22 2.55552 21.8823 2.34166 21.6609C2.12666 21.4383 2 21.1292 2 20.8V3.2C2 2.87076 2.12666 2.5617 2.34166 2.33911C2.55552 2.11769 2.83804 2 3.125 2H11.2006L17 8.00409ZM4.25 17.5C4.25 16.9477 4.69772 16.5 5.25 16.5H13.75C14.3023 16.5 14.75 16.9477 14.75 17.5C14.75 18.0523 14.3023 18.5 13.75 18.5H5.25C4.69772 18.5 4.25 18.0523 4.25 17.5ZM5.25 7.69995C4.69772 7.69995 4.25 8.14767 4.25 8.69995C4.25 9.25224 4.69772 9.69995 5.25 9.69995H6.3125H7.375C7.92728 9.69995 8.375 9.25224 8.375 8.69995C8.375 8.14767 7.92728 7.69995 7.375 7.69995H6.3125H5.25Z" fill="white"/>
</svg>
