<svg width="20" height="25" viewBox="0 0 20 25" fill="none" xmlns="http://www.w3.org/2000/svg">
<path d="M18.8074 11.0714C18.2766 9.87667 17.5049 8.80431 16.5406 7.92144L15.7449 7.19137C15.7179 7.16726 15.6854 7.15015 15.6502 7.14154C15.615 7.13293 15.5783 7.13309 15.5432 7.142C15.5081 7.15091 15.4757 7.1683 15.4489 7.19264C15.4221 7.21698 15.4017 7.24753 15.3895 7.2816L15.034 8.30152C14.8125 8.94136 14.4051 9.59488 13.8281 10.2375C13.7898 10.2785 13.7461 10.2894 13.716 10.2921C13.6859 10.2949 13.6395 10.2894 13.5984 10.2511C13.5602 10.2183 13.541 10.1691 13.5437 10.1199C13.6449 8.47379 13.1527 6.61715 12.0754 4.59645C11.184 2.91754 9.94531 1.60778 8.39766 0.694498L7.26836 0.0300457C7.1207 -0.0574542 6.93203 0.0573893 6.94023 0.229655L7.00039 1.54215C7.04141 2.43903 6.9375 3.232 6.69141 3.89098C6.39062 4.69762 5.95859 5.44684 5.40625 6.11949C5.02186 6.58697 4.58619 7.0098 4.10742 7.38004C2.95435 8.26643 2.01676 9.4022 1.36484 10.7023C0.714538 12.0137 0.375793 13.4576 0.375 14.9214C0.375 16.2121 0.629297 17.4617 1.13242 18.6402C1.61823 19.7749 2.3193 20.8046 3.19688 21.6726C4.08281 22.5476 5.11094 23.2367 6.25664 23.7152C7.44336 24.2128 8.70117 24.4644 10 24.4644C11.2988 24.4644 12.5566 24.2128 13.7434 23.7179C14.8862 23.2422 15.9255 22.5484 16.8031 21.6753C17.6891 20.8003 18.3836 19.7777 18.8676 18.6429C19.3699 17.4676 19.6277 16.2023 19.625 14.9242C19.625 13.5898 19.3516 12.2937 18.8074 11.0714ZM15.4961 20.3492C14.0277 21.8039 12.0781 22.6023 10 22.6023C7.92187 22.6023 5.97227 21.8039 4.50391 20.3492C3.04102 18.8972 2.23437 16.9722 2.23437 14.9242C2.23437 13.7347 2.50234 12.5945 3.03008 11.5336C3.54414 10.4972 4.30977 9.57027 5.23945 8.8566C5.83237 8.40322 6.37015 7.88196 6.8418 7.30348C7.52539 6.46949 8.06133 5.53981 8.4332 4.54176C8.58574 4.13007 8.69659 3.7041 8.76406 3.27028C9.42305 3.87731 9.97539 4.61012 10.4375 5.46871C11.3508 7.18043 11.7719 8.70347 11.6898 9.99957C11.6702 10.3048 11.7201 10.6105 11.8357 10.8938C11.9512 11.177 12.1295 11.4303 12.357 11.6347C12.5542 11.8129 12.7849 11.95 13.0355 12.0383C13.2862 12.1265 13.5519 12.1641 13.8172 12.1488C14.3559 12.1214 14.8508 11.8835 15.2117 11.4816C15.5754 11.0742 15.8898 10.6586 16.1523 10.2347C16.5352 10.7242 16.8551 11.2574 17.1094 11.8316C17.5441 12.8105 17.7656 13.8523 17.7656 14.9242C17.7656 16.9722 16.959 18.8999 15.4961 20.3492Z" fill="white"/>
</svg>
