<svg width="22" height="22" viewBox="0 0 22 22" fill="none" xmlns="http://www.w3.org/2000/svg">
<path d="M11 21C16.5228 21 21 16.5228 21 11C21 5.47715 16.5228 1 11 1C5.47715 1 1 5.47715 1 11C1 16.5228 5.47715 21 11 21Z" stroke="#5CA7FF" stroke-width="2" stroke-linecap="round" stroke-linejoin="round"/>
<path d="M8.08984 7.99974C8.32495 7.33128 8.789 6.76761 9.3998 6.40856C10.0106 6.04952 10.7287 5.91827 11.427 6.03807C12.1253 6.15787 12.7587 6.52098 13.2149 7.06308C13.6712 7.60519 13.9209 8.29132 13.9198 8.99993C13.9198 11.0003 10.9198 12.0005 10.9198 12.0005" stroke="#5CA7FF" stroke-width="2" stroke-linecap="round" stroke-linejoin="round"/>
<path d="M11 16.0002H11.01" stroke="#5CA7FF" stroke-width="2" stroke-linecap="round" stroke-linejoin="round"/>
</svg>
